<svg width="1000" height="1000" viewBox="0 0 1000 1000" fill="none" xmlns="http://www.w3.org/2000/svg">
<rect width="1000" height="1000" rx="87" fill="url(#paint0_linear)"/>
<g filter="url(#filter0_d)">
<path d="M824.137 507.852C820.944 504.584 816.511 502.724 811.998 502.724C807.484 502.724 803.051 504.584 799.859 507.852C796.666 511.114 794.829 515.626 794.829 520.227C794.829 524.835 796.666 529.334 799.859 532.602C803.051 535.856 807.484 537.73 811.998 537.73C816.511 537.73 820.944 535.856 824.137 532.602C827.329 529.334 829.167 524.835 829.167 520.227C829.167 515.626 827.329 511.114 824.137 507.852Z" fill="white"/>
<path d="M604.573 827.539C604.573 841.543 593.398 852.896 579.613 852.896C565.828 852.896 554.653 841.543 554.653 827.539C554.653 821.066 557.04 815.16 560.968 810.68C565.54 805.465 572.199 802.181 579.613 802.181C585.482 802.181 590.878 804.239 595.14 807.683C600.888 812.328 604.573 819.496 604.573 827.539Z" fill="white"/>
<path d="M676.005 754.932C676.005 768.937 664.83 780.289 651.045 780.289C637.26 780.289 626.085 768.937 626.085 754.932C626.085 748.373 628.536 742.395 632.559 737.893C637.125 732.783 643.716 729.574 651.045 729.574C656.878 729.574 662.243 731.607 666.493 735.013C672.286 739.657 676.005 746.853 676.005 754.932Z" fill="white"/>
<path d="M408.537 827.539C408.537 841.556 419.654 852.918 433.368 852.918C447.082 852.918 458.199 841.556 458.199 827.539C458.199 819.469 454.515 812.279 448.771 807.63C444.538 804.204 439.187 802.158 433.368 802.158C425.985 802.158 419.355 805.452 414.806 810.68C410.906 815.163 408.537 821.068 408.537 827.539Z" fill="white"/>
<path d="M337.193 754.691C337.193 768.708 348.311 780.072 362.025 780.072C375.738 780.072 386.856 768.708 386.856 754.691C386.856 746.596 383.147 739.385 377.372 734.738C373.148 731.339 367.818 729.311 362.025 729.311C354.613 729.311 347.96 732.63 343.41 737.893C339.541 742.369 337.193 748.25 337.193 754.691Z" fill="white"/>
<path d="M481.457 900.16C481.457 914.177 492.574 925.54 506.288 925.54C520.002 925.54 531.119 914.177 531.119 900.16C531.119 892.005 527.356 884.748 521.508 880.104C517.304 876.767 512.023 874.78 506.288 874.78C498.802 874.78 492.09 878.166 487.537 883.521C483.75 887.976 481.457 893.794 481.457 900.16Z" fill="white"/>
<path fill-rule="evenodd" clip-rule="evenodd" d="M768.962 502.543H684.381C655.361 502.543 618.207 496.079 591.562 484.346C565.982 473.093 547.579 468.112 520.162 466.15C531.745 453.105 545.593 439.23 559.389 428.872H643.852C715.546 428.872 773.88 369.404 773.88 296.317C773.88 286.649 766.188 278.814 756.711 278.814H667.178C598.643 278.814 542.36 333.161 537.525 401.797C531.938 406.05 526.506 410.528 521.221 415.184V320.602C559.771 291.292 582.513 247.385 582.513 201.433C582.513 152.501 556.726 105.887 513.529 76.7409C507.781 72.8644 500.323 72.8644 494.576 76.7409C451.378 105.88 425.584 152.501 425.584 201.433C425.584 247.385 448.333 291.292 486.883 320.602V415.184C481.598 410.528 476.166 406.05 470.573 401.797C465.744 333.161 409.462 278.814 340.92 278.814H251.393C241.91 278.814 234.224 286.649 234.224 296.317C234.224 369.411 292.558 428.872 364.252 428.872H448.716C459.334 436.848 467.928 446.91 476.608 457.073C479.2 460.107 481.799 463.151 484.463 466.15C452.648 468.175 442.402 471.402 413.063 484.346C386.505 495.983 351.493 502.995 322.588 502.995L188.002 501.533C178.519 501.533 170.833 509.368 170.833 519.036C170.833 528.703 178.519 536.538 188.002 536.538L322.588 538C356.181 538 382.186 534.27 413.063 520.74L413.825 612.147L409.369 623.211L360.343 677.876C349.971 690.891 346.052 699.289 341.672 716.057V737.893H343.41C347.96 732.63 354.613 729.311 362.025 729.311C367.818 729.311 373.148 731.339 377.372 734.738C377.372 724.6 377.372 708.778 377.372 708.778L413.072 665.107V810.68H414.806C419.355 805.452 425.985 802.158 433.368 802.158C439.187 802.158 444.538 804.204 448.771 807.63V791.416L485.772 749.749V883.521H487.537C492.09 878.166 498.802 874.78 506.288 874.78C512.023 874.78 517.304 876.767 521.508 880.104L520.171 574.123L555.87 610.516L559.289 810.68H560.968C565.54 805.465 572.199 802.181 579.613 802.181C585.482 802.181 590.878 804.239 595.14 807.683V665.107L630.84 705.139V737.893H632.559C637.125 732.783 643.716 729.574 651.045 729.574C656.878 729.574 662.243 731.607 666.493 735.013L666.188 716.271C661.785 699.504 658.052 690.891 647.625 677.876L598.71 621.434L591.57 610.516L591.562 520.74C622.526 534.366 650.653 538.936 684.381 538.936H768.962C778.439 538.936 786.812 530.408 786.812 520.74C786.812 511.079 778.445 502.543 768.962 502.543ZM738 313.819H667.178C626.663 313.819 591.963 339.629 578.033 375.96C592.969 368.084 608.582 361.486 624.745 356.318C633.799 353.426 643.43 358.547 646.266 367.777C649.103 376.993 644.073 386.817 635.026 389.716C631.042 390.988 627.105 392.396 623.196 393.866H643.852C690.752 393.866 729.885 359.285 738 313.819ZM270.104 313.819C278.219 359.285 317.353 393.866 364.252 393.866H384.909C380.999 392.396 377.062 390.995 373.078 389.716C364.031 386.824 359.001 377 361.838 367.777C364.675 358.553 374.312 353.426 383.359 356.318C399.522 361.486 415.142 368.084 430.071 375.96C416.142 339.629 381.441 313.819 340.927 313.819H270.104ZM504.052 112.929C475.864 135.675 459.929 167.372 459.929 201.433C459.929 227.79 469.506 252.704 486.883 273.18V246.222C486.883 236.555 494.569 228.72 504.052 228.72C513.535 228.72 521.221 236.555 521.221 246.222V273.18C538.598 252.704 548.175 227.79 548.175 201.433C548.175 167.372 532.24 135.675 504.052 112.929ZM555.87 574.123L520.171 537.73L520.162 502.543C534.117 502.063 541.948 502.757 555.862 506.183C555.862 507.518 555.87 574.123 555.87 574.123ZM448.771 749.819L448.763 506.183C459.473 502.543 470.183 500.723 484.463 502.543L485.417 708.083L448.771 749.819Z" fill="white"/>
<path d="M557.154 685.65L556.463 645.22L520.658 685.65L520.839 727.114L557.154 685.65Z" fill="white"/>
</g>
<defs>
<filter id="filter0_d" x="166.833" y="73.8335" width="666.333" height="859.707" filterUnits="userSpaceOnUse" color-interpolation-filters="sRGB">
<feFlood flood-opacity="0" result="BackgroundImageFix"/>
<feColorMatrix in="SourceAlpha" type="matrix" values="0 0 0 0 0 0 0 0 0 0 0 0 0 0 0 0 0 0 127 0" result="hardAlpha"/>
<feOffset dy="4"/>
<feGaussianBlur stdDeviation="2"/>
<feColorMatrix type="matrix" values="0 0 0 0 0 0 0 0 0 0 0 0 0 0 0 0 0 0 0.26 0"/>
<feBlend mode="normal" in2="BackgroundImageFix" result="effect1_dropShadow"/>
<feBlend mode="normal" in="SourceGraphic" in2="effect1_dropShadow" result="shape"/>
</filter>
<linearGradient id="paint0_linear" x1="977.083" y1="981.25" x2="14.5833" y2="18.7499" gradientUnits="userSpaceOnUse">
<stop stop-color="#215F78"/>
<stop offset="1" stop-color="#049C97"/>
</linearGradient>
</defs>
</svg>
