<svg width="803" height="342" viewBox="0 0 803 342" fill="none" xmlns="http://www.w3.org/2000/svg">
<g filter="url(#filter0_d)">
<g filter="url(#filter1_d)">
<path d="M257.098 170.087C255.89 168.852 254.213 168.148 252.506 168.148C250.799 168.148 249.122 168.852 247.915 170.087C246.707 171.32 246.012 173.026 246.012 174.766C246.012 176.508 246.707 178.209 247.915 179.444C249.122 180.674 250.799 181.383 252.506 181.383C254.213 181.383 255.89 180.674 257.098 179.444C258.305 178.209 259 176.508 259 174.766C259 173.026 258.305 171.32 257.098 170.087Z" fill="white"/>
<path d="M174.053 290.949C174.053 296.244 169.826 300.536 164.612 300.536C159.398 300.536 155.171 296.244 155.171 290.949C155.171 288.502 156.074 286.269 157.56 284.575C159.289 282.604 161.808 281.362 164.612 281.362C166.832 281.362 168.873 282.14 170.485 283.442C172.659 285.199 174.053 287.909 174.053 290.949Z" fill="white"/>
<path d="M201.07 263.499C201.07 268.794 196.843 273.086 191.629 273.086C186.415 273.086 182.189 268.794 182.189 263.499C182.189 261.019 183.116 258.759 184.638 257.057C186.365 255.125 188.857 253.912 191.629 253.912C193.835 253.912 195.865 254.681 197.472 255.968C199.663 257.724 201.07 260.445 201.07 263.499Z" fill="white"/>
<path d="M99.9062 290.949C99.9062 296.248 104.111 300.544 109.298 300.544C114.485 300.544 118.69 296.248 118.69 290.949C118.69 287.898 117.296 285.18 115.124 283.422C113.523 282.127 111.499 281.354 109.298 281.354C106.506 281.354 103.998 282.599 102.277 284.575C100.802 286.27 99.9062 288.503 99.9062 290.949Z" fill="white"/>
<path d="M72.922 263.408C72.922 268.707 77.1269 273.004 82.3139 273.004C87.5008 273.004 91.7057 268.707 91.7057 263.408C91.7057 260.347 90.3031 257.621 88.1187 255.864C86.521 254.579 84.505 253.813 82.3139 253.813C79.5106 253.813 76.9942 255.068 75.2733 257.057C73.8101 258.749 72.922 260.973 72.922 263.408Z" fill="white"/>
<path d="M127.486 318.405C127.486 323.704 131.691 328 136.878 328C142.065 328 146.27 323.704 146.27 318.405C146.27 315.321 144.847 312.578 142.635 310.822C141.045 309.561 139.047 308.809 136.878 308.809C134.047 308.809 131.508 310.089 129.786 312.114C128.354 313.798 127.486 315.998 127.486 318.405Z" fill="white"/>
<path fill-rule="evenodd" clip-rule="evenodd" d="M236.229 168.08H204.238C193.262 168.08 179.209 165.636 169.131 161.2C159.456 156.946 152.496 155.063 142.126 154.321C146.507 149.389 151.745 144.143 156.962 140.227H188.909C216.025 140.227 238.089 117.745 238.089 90.113C238.089 86.4581 235.18 83.4959 231.595 83.4959H197.731C171.809 83.4959 150.522 104.043 148.693 129.991C146.58 131.599 144.525 133.292 142.526 135.053V99.2942C157.107 88.2131 165.709 71.6135 165.709 54.241C165.709 35.7415 155.955 18.1182 139.617 7.09919C137.443 5.6336 134.622 5.6336 132.448 7.09919C116.11 18.1157 106.354 35.7415 106.354 54.241C106.354 71.6135 114.958 88.2131 129.539 99.2942V135.053C127.54 133.292 125.485 131.599 123.37 129.991C121.543 104.043 100.256 83.4959 74.3315 83.4959H40.4699C36.8831 83.4959 33.9761 86.4581 33.9761 90.113C33.9761 117.747 56.0398 140.227 83.1564 140.227H115.103C119.119 143.243 122.37 147.047 125.653 150.889C126.633 152.036 127.616 153.187 128.623 154.321C116.59 155.087 112.715 156.307 101.618 161.2C91.573 165.6 78.3307 168.251 67.3978 168.251L16.4938 167.698C12.907 167.698 10 170.66 10 174.315C10 177.97 12.907 180.932 16.4938 180.932L67.3978 181.485C80.1038 181.485 89.9394 180.075 101.618 174.959L101.906 209.517L100.221 213.7L81.6778 234.367C77.7549 239.287 76.2726 242.463 74.6161 248.802V257.057H75.2733C76.9942 255.068 79.5106 253.813 82.3139 253.813C84.505 253.813 86.521 254.579 88.1187 255.864C88.1187 252.032 88.1187 246.05 88.1187 246.05L101.621 229.539V284.575H102.277C103.998 282.599 106.506 281.354 109.298 281.354C111.499 281.354 113.523 282.127 115.124 283.422V277.292L129.119 261.54V312.114H129.786C131.508 310.089 134.047 308.809 136.878 308.809C139.047 308.809 141.045 309.561 142.635 310.822L142.129 195.142L155.632 208.901L156.925 284.575H157.56C159.289 282.604 161.808 281.362 164.612 281.362C166.832 281.362 168.873 282.14 170.485 283.442V229.539L183.987 244.674V257.057H184.638C186.365 255.125 188.857 253.912 191.629 253.912C193.835 253.912 195.865 254.681 197.472 255.968L197.357 248.883C195.691 242.544 194.28 239.287 190.336 234.367L171.835 213.028L169.134 208.901L169.131 174.959C180.843 180.111 191.481 181.839 204.238 181.839H236.229C239.813 181.839 242.98 178.614 242.98 174.959C242.98 171.307 239.816 168.08 236.229 168.08ZM224.518 96.7301H197.731C182.407 96.7301 169.283 106.488 164.014 120.223C169.663 117.246 175.569 114.751 181.682 112.797C185.106 111.704 188.749 113.64 189.822 117.129C190.895 120.614 188.993 124.328 185.571 125.424C184.064 125.905 182.575 126.437 181.096 126.993H188.909C206.648 126.993 221.449 113.919 224.518 96.7301ZM47.5471 96.7301C50.6165 113.919 65.4177 126.993 83.1564 126.993H90.9693C89.4904 126.437 88.0014 125.907 86.4947 125.424C83.0727 124.331 81.1703 120.616 82.2433 117.129C83.3162 113.643 86.9614 111.704 90.3833 112.797C96.4966 114.751 102.404 117.246 108.051 120.223C102.782 106.488 89.6578 96.7301 74.334 96.7301H47.5471ZM136.033 20.7806C125.371 29.3803 119.344 41.3635 119.344 54.241C119.344 64.2054 122.966 73.6245 129.539 81.366V71.1741C129.539 67.5191 132.446 64.557 136.033 64.557C139.619 64.557 142.526 67.5191 142.526 71.1741V81.366C149.099 73.6245 152.721 64.2054 152.721 54.241C152.721 41.3635 146.694 29.3803 136.033 20.7806ZM155.632 195.142L142.129 181.383L142.126 168.08C147.404 167.898 150.366 168.161 155.629 169.456C155.629 169.961 155.632 195.142 155.632 195.142ZM115.124 261.566L115.121 169.456C119.171 168.08 123.222 167.392 128.623 168.08L128.984 245.787L115.124 261.566Z" fill="white"/>
<path d="M156.117 237.306L155.856 222.021L142.313 237.306L142.382 252.982L156.117 237.306Z" fill="white"/>
</g>
<path d="M344.695 131.606H366.801C366.481 112.164 350.501 98.741 326.212 98.741C302.295 98.741 284.77 111.951 284.876 131.766C284.823 147.853 296.169 157.068 314.599 161.489L326.478 164.472C338.356 167.349 344.962 170.758 345.015 178.109C344.962 186.099 337.398 191.532 325.679 191.532C313.694 191.532 305.065 185.992 304.319 175.072H282C282.586 198.67 299.472 210.868 325.945 210.868C352.579 210.868 368.239 198.137 368.293 178.162C368.239 159.998 354.55 150.356 335.587 146.095L325.785 143.751C316.304 141.567 308.367 138.052 308.527 130.221C308.527 123.19 314.759 118.023 326.052 118.023C337.078 118.023 343.843 123.03 344.695 131.606ZM406.072 100.232H383.38V209.323H406.072V100.232ZM424.25 209.323H446.941V127.505H424.25V209.323ZM435.649 116.958C442.414 116.958 447.953 111.791 447.953 105.452C447.953 99.167 442.414 94 435.649 94C428.937 94 423.397 99.167 423.397 105.452C423.397 111.791 428.937 116.958 435.649 116.958ZM487.81 162.022C487.864 151.475 494.149 145.296 503.311 145.296C512.42 145.296 517.906 151.262 517.853 161.276V209.323H540.545V157.228C540.545 138.158 529.359 126.439 512.313 126.439C500.168 126.439 491.379 132.405 487.704 141.94H486.745V127.505H465.119V209.323H487.81V162.022ZM635.187 240.005V127.505H612.815V141.248H611.803C608.767 134.589 602.215 126.439 588.525 126.439C570.574 126.439 555.393 140.395 555.393 168.52C555.393 195.9 569.935 210.655 588.578 210.655C601.789 210.655 608.66 203.037 611.803 196.219H612.495V240.005H635.187ZM612.975 168.414C612.975 183.009 606.689 192.597 595.769 192.597C584.637 192.597 578.564 182.689 578.564 168.414C578.564 154.245 584.53 144.497 595.769 144.497C606.796 144.497 612.975 153.819 612.975 168.414ZM690.638 210.921C710.88 210.921 724.516 201.067 727.712 185.885L706.725 184.501C704.434 190.733 698.575 193.982 691.011 193.982C679.665 193.982 672.474 186.471 672.474 174.273V174.22H728.191V167.988C728.191 140.182 711.359 126.439 689.733 126.439C665.656 126.439 650.049 143.538 650.049 168.787C650.049 194.728 665.443 210.921 690.638 210.921ZM672.474 160.158C672.953 150.836 680.038 143.378 690.105 143.378C699.96 143.378 706.778 150.41 706.831 160.158H672.474ZM743 209.323H765.691V163.034C765.691 152.966 773.042 146.042 783.056 146.042C786.199 146.042 790.514 146.574 792.644 147.267V127.132C790.62 126.653 787.797 126.333 785.507 126.333C776.345 126.333 768.834 131.66 765.851 141.78H764.999V127.505H743V209.323Z" fill="white"/>
</g>
<defs>
<filter id="filter0_d" x="0" y="0" width="802.644" height="342" filterUnits="userSpaceOnUse" color-interpolation-filters="sRGB">
<feFlood flood-opacity="0" result="BackgroundImageFix"/>
<feColorMatrix in="SourceAlpha" type="matrix" values="0 0 0 0 0 0 0 0 0 0 0 0 0 0 0 0 0 0 127 0" result="hardAlpha"/>
<feOffset dy="4"/>
<feGaussianBlur stdDeviation="5"/>
<feColorMatrix type="matrix" values="0 0 0 0 0 0 0 0 0 0 0 0 0 0 0 0 0 0 0.25 0"/>
<feBlend mode="normal" in2="BackgroundImageFix" result="effect1_dropShadow"/>
<feBlend mode="normal" in="SourceGraphic" in2="effect1_dropShadow" result="shape"/>
</filter>
<filter id="filter1_d" x="6" y="6" width="257" height="330" filterUnits="userSpaceOnUse" color-interpolation-filters="sRGB">
<feFlood flood-opacity="0" result="BackgroundImageFix"/>
<feColorMatrix in="SourceAlpha" type="matrix" values="0 0 0 0 0 0 0 0 0 0 0 0 0 0 0 0 0 0 127 0" result="hardAlpha"/>
<feOffset dy="4"/>
<feGaussianBlur stdDeviation="2"/>
<feColorMatrix type="matrix" values="0 0 0 0 0 0 0 0 0 0 0 0 0 0 0 0 0 0 0.26 0"/>
<feBlend mode="normal" in2="BackgroundImageFix" result="effect1_dropShadow"/>
<feBlend mode="normal" in="SourceGraphic" in2="effect1_dropShadow" result="shape"/>
</filter>
</defs>
</svg>
