<svg width="2135" height="883" viewBox="0 0 2135 883" fill="none" xmlns="http://www.w3.org/2000/svg">
<g filter="url(#filter0_d)">
<path d="M675.461 445.889C672.18 442.531 667.623 440.621 662.984 440.621C658.345 440.621 653.789 442.531 650.508 445.889C647.227 449.239 645.338 453.875 645.338 458.602C645.338 463.336 647.227 467.958 650.508 471.315C653.789 474.659 658.345 476.583 662.984 476.583C667.623 476.583 672.18 474.659 675.461 471.315C678.742 467.958 680.63 463.336 680.63 458.602C680.63 453.875 678.742 449.239 675.461 445.889Z" fill="url(#paint0_linear)"/>
<path d="M449.795 774.318C449.795 788.706 438.309 800.369 424.141 800.369C409.973 800.369 398.488 788.706 398.488 774.318C398.488 767.669 400.941 761.602 404.978 756.998C409.677 751.641 416.521 748.267 424.141 748.267C430.173 748.267 435.719 750.381 440.1 753.919C446.008 758.692 449.795 766.056 449.795 774.318Z" fill="url(#paint1_linear)"/>
<path d="M523.212 699.726C523.212 714.113 511.726 725.777 497.558 725.777C483.39 725.777 471.904 714.113 471.904 699.726C471.904 692.987 474.424 686.846 478.558 682.221C483.252 676.971 490.026 673.675 497.558 673.675C503.553 673.675 509.068 675.763 513.435 679.262C519.39 684.033 523.212 691.426 523.212 699.726Z" fill="url(#paint2_linear)"/>
<path d="M248.31 774.318C248.31 788.719 259.737 800.392 273.832 800.392C287.927 800.392 299.353 788.719 299.353 774.318C299.353 766.028 295.566 758.641 289.663 753.865C285.312 750.345 279.812 748.244 273.832 748.244C266.243 748.244 259.428 751.627 254.754 756.998C250.745 761.604 248.31 767.67 248.31 774.318Z" fill="url(#paint3_linear)"/>
<path d="M174.984 699.479C174.984 713.879 186.41 725.553 200.505 725.553C214.6 725.553 226.026 713.879 226.026 699.479C226.026 691.161 222.215 683.754 216.279 678.979C211.937 675.487 206.459 673.404 200.505 673.404C192.887 673.404 186.049 676.814 181.373 682.221C177.397 686.819 174.984 692.861 174.984 699.479Z" fill="url(#paint4_linear)"/>
<path d="M323.257 848.926C323.257 863.326 334.683 875 348.778 875C362.873 875 374.299 863.326 374.299 848.926C374.299 840.547 370.432 833.092 364.421 828.322C360.1 824.893 354.673 822.851 348.778 822.851C341.084 822.851 334.185 826.33 329.506 831.831C325.613 836.409 323.257 842.386 323.257 848.926Z" fill="url(#paint5_linear)"/>
<path fill-rule="evenodd" clip-rule="evenodd" d="M618.753 440.434H531.821C501.994 440.434 463.808 433.793 436.422 421.74C410.132 410.179 391.217 405.062 363.038 403.046C374.942 389.644 389.175 375.389 403.354 364.748H490.165C563.852 364.748 623.808 303.654 623.808 228.568C623.808 218.636 615.901 210.587 606.161 210.587H514.139C443.699 210.587 385.853 266.42 380.883 336.933C375.141 341.302 369.558 345.903 364.126 350.686V253.517C403.747 223.405 427.122 178.298 427.122 131.09C427.122 80.8193 400.618 32.93 356.22 2.98693C350.313 -0.995644 342.648 -0.995644 336.74 2.98693C292.342 32.923 265.832 80.8193 265.832 131.09C265.832 178.298 289.213 223.405 328.834 253.517V350.686C323.402 345.903 317.819 341.302 312.07 336.933C307.107 266.42 249.261 210.587 178.814 210.587H86.7987C77.0519 210.587 69.1525 218.636 69.1525 228.568C69.1525 303.661 129.108 364.748 202.795 364.748H289.606C300.519 372.943 309.352 383.28 318.274 393.721C320.937 396.838 323.609 399.965 326.346 403.046C293.647 405.126 283.116 408.442 252.962 421.74C225.666 433.695 189.681 440.899 159.972 440.899L21.6462 439.396C11.8994 439.396 4 447.446 4 457.378C4 467.31 11.8994 475.359 21.6462 475.359L159.972 476.861C194.499 476.861 221.227 473.029 252.962 459.129L253.746 553.036L249.165 564.402L198.777 620.562C188.117 633.933 184.089 642.561 179.587 659.788V682.221H181.373C186.049 676.814 192.887 673.404 200.505 673.404C206.459 673.404 211.937 675.487 216.279 678.979C216.279 668.564 216.279 652.31 216.279 652.31L252.971 607.444V756.998H254.754C259.428 751.627 266.243 748.244 273.832 748.244C279.812 748.244 285.312 750.345 289.663 753.865V737.208L327.692 694.401V831.831H329.506C334.185 826.33 341.084 822.851 348.778 822.851C354.673 822.851 360.1 824.893 364.421 828.322L363.047 513.972L399.738 551.361L403.252 756.998H404.978C409.677 751.641 416.521 748.267 424.141 748.267C430.173 748.267 435.719 750.381 440.1 753.919V607.444L476.791 648.571V682.221H478.558C483.252 676.971 490.026 673.675 497.558 673.675C503.553 673.675 509.068 675.763 513.435 679.262L513.122 660.008C508.596 642.781 504.76 633.933 494.043 620.562L443.769 562.577L436.43 551.361L436.422 459.129C468.247 473.128 497.155 477.823 531.821 477.823H618.753C628.493 477.823 637.099 469.061 637.099 459.129C637.099 449.204 628.5 440.434 618.753 440.434ZM586.93 246.549H514.139C472.499 246.549 436.834 273.065 422.517 310.39C437.868 302.298 453.915 295.52 470.527 290.21C479.833 287.239 489.731 292.5 492.647 301.982C495.563 311.45 490.393 321.544 481.094 324.522C477 325.828 472.953 327.275 468.935 328.785H490.165C538.368 328.785 578.589 293.258 586.93 246.549ZM106.03 246.549C114.371 293.258 154.592 328.785 202.795 328.785H224.025C220.007 327.275 215.96 325.835 211.866 324.522C202.567 321.551 197.397 311.457 200.313 301.982C203.229 292.507 213.134 287.239 222.433 290.21C239.045 295.52 255.099 302.298 270.443 310.39C256.126 273.065 220.462 246.549 178.821 246.549H106.03ZM346.48 40.1647C317.509 63.5333 301.131 96.0963 301.131 131.09C301.131 158.167 310.974 183.762 328.834 204.799V177.103C328.834 167.172 336.733 159.122 346.48 159.122C356.227 159.122 364.126 167.172 364.126 177.103V204.799C381.986 183.762 391.829 158.167 391.829 131.09C391.829 96.0963 375.451 63.5333 346.48 40.1647ZM399.738 513.972L363.047 476.583L363.038 440.435C377.38 439.941 385.43 440.654 399.73 444.174C399.73 445.546 399.738 513.972 399.738 513.972ZM289.663 694.473L289.654 444.174C300.662 440.434 311.669 438.565 326.346 440.435L327.327 651.595L289.663 694.473Z" fill="url(#paint6_linear)"/>
<path d="M401.057 628.549L400.348 587.013L363.547 628.549L363.734 671.147L401.057 628.549Z" fill="url(#paint7_linear)"/>
<path d="M913.497 341.321H973.568C972.698 288.489 929.274 252.014 863.272 252.014C798.28 252.014 750.658 287.91 750.946 341.755C750.802 385.47 781.633 410.511 831.715 422.524L863.995 430.63C896.272 438.448 914.223 447.712 914.367 467.687C914.223 489.399 893.668 504.163 861.823 504.163C829.255 504.163 805.807 489.109 803.78 459.435H743.13C744.723 523.56 790.609 556.707 862.546 556.707C934.921 556.707 977.476 522.111 977.622 467.832C977.476 418.473 940.277 392.272 888.747 380.693L862.111 374.323C836.348 368.389 814.78 358.837 815.215 337.557C815.215 318.451 832.149 304.41 862.837 304.41C892.799 304.41 911.182 318.016 913.497 341.321ZM1080.28 256.065H1018.62V552.508H1080.28V256.065ZM1129.68 552.508H1191.34V330.177H1129.68V552.508ZM1160.65 301.516C1179.04 301.516 1194.09 287.476 1194.09 270.25C1194.09 253.171 1179.04 239.13 1160.65 239.13C1142.42 239.13 1127.36 253.171 1127.36 270.25C1127.36 287.476 1142.42 301.516 1160.65 301.516ZM1302.4 423.973C1302.54 395.312 1319.62 378.522 1344.52 378.522C1369.27 378.522 1384.18 394.734 1384.04 421.946V552.508H1445.7V410.946C1445.7 359.125 1415.3 327.28 1368.98 327.28C1335.98 327.28 1312.1 343.492 1302.11 369.402H1299.5V330.177H1240.74V552.508H1302.4V423.973ZM1702.88 635.883V330.177H1642.08V367.522H1639.33C1631.08 349.427 1613.28 327.28 1576.08 327.28C1527.3 327.28 1486.05 365.204 1486.05 441.63C1486.05 516.033 1525.56 556.128 1576.22 556.128C1612.12 556.128 1630.79 535.427 1639.33 516.899H1641.21V635.883H1702.88ZM1642.52 441.342C1642.52 481.003 1625.44 507.057 1595.76 507.057C1565.51 507.057 1549.01 480.133 1549.01 441.342C1549.01 402.84 1565.22 376.351 1595.76 376.351C1625.73 376.351 1642.52 401.682 1642.52 441.342ZM1853.56 556.851C1908.57 556.851 1945.62 530.073 1954.3 488.818L1897.27 485.057C1891.05 501.992 1875.13 510.821 1854.57 510.821C1823.74 510.821 1804.2 490.41 1804.2 457.264V457.12H1955.61V440.185C1955.61 364.625 1909.87 327.28 1851.1 327.28C1785.67 327.28 1743.26 373.745 1743.26 442.356C1743.26 512.848 1785.1 556.851 1853.56 556.851ZM1804.2 418.908C1805.5 393.576 1824.76 373.31 1852.11 373.31C1878.89 373.31 1897.42 392.418 1897.56 418.908H1804.2ZM1995.85 552.508H2057.51V426.723C2057.51 399.364 2077.48 380.549 2104.7 380.549C2113.24 380.549 2124.96 381.995 2130.75 383.878V329.163C2125.25 327.861 2117.58 326.992 2111.36 326.992C2086.46 326.992 2066.05 341.467 2057.94 368.967H2055.63V330.177H1995.85V552.508Z" fill="#2B2F34"/>
</g>
<defs>
<filter id="filter0_d" x="0" y="0" width="2134.75" height="883" filterUnits="userSpaceOnUse" color-interpolation-filters="sRGB">
<feFlood flood-opacity="0" result="BackgroundImageFix"/>
<feColorMatrix in="SourceAlpha" type="matrix" values="0 0 0 0 0 0 0 0 0 0 0 0 0 0 0 0 0 0 127 0" result="hardAlpha"/>
<feOffset dy="4"/>
<feGaussianBlur stdDeviation="2"/>
<feComposite in2="hardAlpha" operator="out"/>
<feColorMatrix type="matrix" values="0 0 0 0 0 0 0 0 0 0 0 0 0 0 0 0 0 0 0.25 0"/>
<feBlend mode="normal" in2="BackgroundImageFix" result="effect1_dropShadow"/>
<feBlend mode="normal" in="SourceGraphic" in2="effect1_dropShadow" result="shape"/>
</filter>
<linearGradient id="paint0_linear" x1="4" y1="0" x2="680.63" y2="875" gradientUnits="userSpaceOnUse">
<stop stop-color="#049C97"/>
<stop offset="1" stop-color="#215F78"/>
</linearGradient>
<linearGradient id="paint1_linear" x1="4" y1="0" x2="680.63" y2="875" gradientUnits="userSpaceOnUse">
<stop stop-color="#049C97"/>
<stop offset="1" stop-color="#215F78"/>
</linearGradient>
<linearGradient id="paint2_linear" x1="4" y1="0" x2="680.63" y2="875" gradientUnits="userSpaceOnUse">
<stop stop-color="#049C97"/>
<stop offset="1" stop-color="#215F78"/>
</linearGradient>
<linearGradient id="paint3_linear" x1="4" y1="0" x2="680.63" y2="875" gradientUnits="userSpaceOnUse">
<stop stop-color="#049C97"/>
<stop offset="1" stop-color="#215F78"/>
</linearGradient>
<linearGradient id="paint4_linear" x1="4" y1="0" x2="680.63" y2="875" gradientUnits="userSpaceOnUse">
<stop stop-color="#049C97"/>
<stop offset="1" stop-color="#215F78"/>
</linearGradient>
<linearGradient id="paint5_linear" x1="4" y1="0" x2="680.63" y2="875" gradientUnits="userSpaceOnUse">
<stop stop-color="#049C97"/>
<stop offset="1" stop-color="#215F78"/>
</linearGradient>
<linearGradient id="paint6_linear" x1="4" y1="0" x2="680.63" y2="875" gradientUnits="userSpaceOnUse">
<stop stop-color="#049C97"/>
<stop offset="1" stop-color="#215F78"/>
</linearGradient>
<linearGradient id="paint7_linear" x1="4" y1="0" x2="680.63" y2="875" gradientUnits="userSpaceOnUse">
<stop stop-color="#049C97"/>
<stop offset="1" stop-color="#215F78"/>
</linearGradient>
</defs>
</svg>
