<svg width="1428" height="174" viewBox="0 0 1428 174" fill="none" xmlns="http://www.w3.org/2000/svg">
<g clip-path="url(#clip0)">
<path opacity="0.1" d="M-2 44C88.7283 44.9275 145.913 71.1879 289.91 103.912C385.908 125.728 541.605 133.335 757 126.733C467.336 200.254 214.336 197.668 -2 118.973" fill="white"/>
<path opacity="0.1" d="M98 148.708C275.413 116.235 424.148 96.5247 544.204 89.5787C664.259 82.6328 808.525 85.7979 977 99.0742C929.07 100.123 808.303 118.846 614.7 155.243C421.097 191.641 248.863 189.463 98 148.708Z" fill="white"/>
<path opacity="0.2" d="M1044 95.6521C1128.83 73.3288 1277.08 61.6079 1437 84.1657V164C1269.17 121.944 1138.17 99.1609 1044 95.6521Z" fill="white"/>
<path d="M-3.54297 110.035C53.086 129.198 94.208 141.809 119.822 147.865C177.454 161.495 230.295 166.29 268.033 169.459C307.355 172.759 392.635 171.801 457.025 167.663C482.76 166.01 514.727 162.372 552.926 156.752C591.747 150.596 618.372 146.008 632.799 142.991C659.913 137.324 708.501 125.503 723.605 122.128C776.47 110.317 814.839 98.5316 852.324 91.9036C918.689 80.1686 951.676 78.5216 1007.19 76.4316C1056.71 77.4766 1093.39 79.1286 1117.24 81.3866C1157.7 85.2186 1204.62 93.8206 1231.4 98.3036C1281.86 106.748 1350.35 123.432 1436.89 148.354L1437.19 180.352L-2.87897 180.031L-3.54297 110.035Z" fill="#F3F4F6"/>
</g>
<defs>
<clipPath id="clip0">
<rect width="1428" height="174" fill="white"/>
</clipPath>
</defs>
</svg>
