<svg id="SvgjsSvg1011" width="288" height="288" xmlns="http://www.w3.org/2000/svg" version="1.1" xmlns:xlink="http://www.w3.org/1999/xlink" xmlns:svgjs="http://svgjs.com/svgjs"><defs id="SvgjsDefs1012"></defs><g id="SvgjsG1013" transform="matrix(1,0,0,1,0,0)"><svg xmlns="http://www.w3.org/2000/svg" width="288" height="288" viewBox="0 0 512 512"><path d="M349.33,69.33a93.62,93.62,0,0,1,93.34,93.34V349.33a93.62,93.62,0,0,1-93.34,93.34H162.67a93.62,93.62,0,0,1-93.34-93.34V162.67a93.62,93.62,0,0,1,93.34-93.34H349.33m0-37.33H162.67C90.8,32,32,90.8,32,162.67V349.33C32,421.2,90.8,480,162.67,480H349.33C421.2,480,480,421.2,480,349.33V162.67C480,90.8,421.2,32,349.33,32Z" fill="#ffffff" class="color000 svgShape"></path><path d="M377.33 162.67a28 28 0 1128-28A27.94 27.94 0 01377.33 162.67zM256 181.33A74.67 74.67 0 11181.33 256 74.75 74.75 0 01256 181.33M256 144A112 112 0 10368 256 112 112 0 00256 144z" fill="#ffffff" class="color000 svgShape"></path></svg></g></svg>